<svg xmlns="http://www.w3.org/2000/svg" viewBox="0 0 240 200" width="240" height="200">
  <defs>
    <linearGradient id="bg_DAILY" x1="0%" y1="0%" x2="100%" y2="100%">
      <stop offset="0%" style="stop-color:#0D0B09"/>
      <stop offset="100%" style="stop-color:#1A1510"/>
    </linearGradient>
    <linearGradient id="glow_DAILY" x1="0%" y1="0%" x2="100%" y2="100%">
      <stop offset="0%" style="stop-color:#FF8C00;stop-opacity:0.3"/>
      <stop offset="100%" style="stop-color:#FF4500;stop-opacity:0.1"/>
    </linearGradient>
    <filter id="blur_DAILY">
      <feGaussianBlur stdDeviation="8"/>
    </filter>
  </defs>
  
  <!-- Background -->
  <rect width="240" height="200" fill="url(#bg_DAILY)"/>
  
  <!-- Glow orb -->
  <circle cx="120" cy="90" r="70" fill="url(#glow_DAILY)" filter="url(#blur_DAILY)"/>
  
  <!-- Border -->
  <rect x="2" y="2" width="236" height="196" rx="8" fill="none" stroke="#FF8C00" stroke-width="1.5" opacity="0.4"/>
  
  <!-- Corner accents -->
  <path d="M2 20 L2 2 L20 2" stroke="#FF8C00" stroke-width="2.5" fill="none"/>
  <path d="M220 2 L238 2 L238 20" stroke="#FF8C00" stroke-width="2.5" fill="none"/>
  <path d="M2 180 L2 198 L20 198" stroke="#FF8C00" stroke-width="2.5" fill="none"/>
  <path d="M220 198 L238 198 L238 180" stroke="#FF8C00" stroke-width="2.5" fill="none"/>
  
  <!-- Main shape -->
  
        <circle cx="120" cy="100" r="35" fill="#FF8C00" opacity="0.9"/>
        <g stroke="#FFD700" stroke-width="4" stroke-linecap="round">
          <line x1="120" y1="52" x2="120" y2="40"/>
          <line x1="120" y1="148" x2="120" y2="160"/>
          <line x1="72" y1="100" x2="60" y2="100"/>
          <line x1="168" y1="100" x2="180" y2="100"/>
          <line x1="86" y1="66" x2="78" y2="58"/>
          <line x1="154" y1="134" x2="162" y2="142"/>
          <line x1="86" y1="134" x2="78" y2="142"/>
          <line x1="154" y1="66" x2="162" y2="58"/>
        </g>
        <text x="120" y="107" text-anchor="middle" fill="white" font-size="28" font-family="Arial Black" font-weight="900">☀</text>
        
  
  <!-- Title bar -->
  <rect x="20" y="152" width="200" height="36" rx="4" fill="#FF8C00" opacity="0.15"/>
  <rect x="20" y="152" width="200" height="2" fill="#FF8C00" opacity="0.6"/>
  <text x="120" y="176" text-anchor="middle" fill="#FF8C00" font-size="18" font-family="'Arial Black', sans-serif" font-weight="900" letter-spacing="3">DAILY</text>
</svg>