<svg xmlns="http://www.w3.org/2000/svg" viewBox="0 0 240 200" width="240" height="200">
  <defs>
    <linearGradient id="bg_VIP2" x1="0%" y1="0%" x2="100%" y2="100%">
      <stop offset="0%" style="stop-color:#0D0B09"/>
      <stop offset="100%" style="stop-color:#1A1510"/>
    </linearGradient>
    <linearGradient id="glow_VIP2" x1="0%" y1="0%" x2="100%" y2="100%">
      <stop offset="0%" style="stop-color:#C0C0C0;stop-opacity:0.3"/>
      <stop offset="100%" style="stop-color:#607D8B;stop-opacity:0.1"/>
    </linearGradient>
    <filter id="blur_VIP2">
      <feGaussianBlur stdDeviation="8"/>
    </filter>
  </defs>
  
  <!-- Background -->
  <rect width="240" height="200" fill="url(#bg_VIP2)"/>
  
  <!-- Glow orb -->
  <circle cx="120" cy="90" r="70" fill="url(#glow_VIP2)" filter="url(#blur_VIP2)"/>
  
  <!-- Border -->
  <rect x="2" y="2" width="236" height="196" rx="8" fill="none" stroke="#C0C0C0" stroke-width="1.5" opacity="0.4"/>
  
  <!-- Corner accents -->
  <path d="M2 20 L2 2 L20 2" stroke="#C0C0C0" stroke-width="2.5" fill="none"/>
  <path d="M220 2 L238 2 L238 20" stroke="#C0C0C0" stroke-width="2.5" fill="none"/>
  <path d="M2 180 L2 198 L20 198" stroke="#C0C0C0" stroke-width="2.5" fill="none"/>
  <path d="M220 198 L238 198 L238 180" stroke="#C0C0C0" stroke-width="2.5" fill="none"/>
  
  <!-- Main shape -->
  
        <polygon points="120,55 143,78 165,78 148,97 156,120 120,108 84,120 92,97 75,78 97,78" fill="#C0C0C0" stroke="#607D8B" stroke-width="3" opacity="0.9"/>
        <text x="120" y="103" text-anchor="middle" fill="#333" font-size="18" font-family="Arial Black" font-weight="900">II</text>
        
  
  <!-- Title bar -->
  <rect x="20" y="152" width="200" height="36" rx="4" fill="#C0C0C0" opacity="0.15"/>
  <rect x="20" y="152" width="200" height="2" fill="#C0C0C0" opacity="0.6"/>
  <text x="120" y="176" text-anchor="middle" fill="#C0C0C0" font-size="18" font-family="'Arial Black', sans-serif" font-weight="900" letter-spacing="3">VIP 2</text>
</svg>